<?xml version="1.0" encoding="UTF-8"?>
<svg width="9.5507mm" height="9.8825mm" version="1.1" viewBox="0 0 9.5507 9.8825" xmlns="http://www.w3.org/2000/svg">
 <g transform="translate(-30.749 -41.736)">
  <path d="m33.394 51.482c-0.034-0.01688-0.0782-0.05338-0.0981-0.08121-0.046-0.06464-0.23049-0.86079-0.23207-1.0017-1e-3 -0.17948 0.10101-0.35416 0.25426-0.43116 0.0446-0.02242 0.15623-0.0628 0.24789-0.0897 0.1257-0.03688 0.16411-0.05557 0.15623-0.07615-6e-3 -0.01511-0.0159-0.09335-0.0227-0.17411-0.0199-0.23847 0.0333-0.30279 0.32122-0.38753 0.0925-0.02733 0.17176-0.05313 0.17622-0.05763 4e-3 -0.0043-1e-3 -0.07368-0.0141-0.15376-0.0191-0.12595-0.0179-0.15673 0.01-0.22749 0.0384-0.10046 0.10388-0.14383 0.31066-0.20572 0.0843-0.02527 0.16016-0.05018 0.16875-0.05547 8e-3 -0.0053 4e-3 -0.08428-0.01-0.1756-0.0171-0.11449-0.0189-0.18645-7e-3 -0.23207 0.01-0.03635 0.13779-0.22656 0.28389-0.42265l0.2656-0.35655-0.0619-0.14985c-0.045-0.109-0.0699-0.14776-0.0911-0.1422-0.0161 0.0043-0.67508 0.3945-1.4645 0.86734-0.78941 0.47284-1.4539 0.86938-1.4766 0.88121-0.0227 0.01184-0.0738 0.02141-0.11375 0.02141-0.0663 0-0.91986-0.2711-1.0213-0.32438-0.067-0.03514-0.11746-0.13237-0.11721-0.22555 5.1e-4 -0.14683 0.1429-0.90919 0.18548-0.9926 0.055-0.10789 0.18045-0.2095 0.30226-0.24492 0.0988-0.02879 0.185-0.02763 0.43027 0.0053l0.0778 0.01033 0.0329-0.13434c0.0394-0.16053 0.0914-0.24444 0.18016-0.29047 0.0668-0.03461 0.0959-0.03471 0.38954-0.0014l0.0972 0.01083 0.0139-0.08197c0.0329-0.19527 0.0972-0.30063 0.21336-0.3501 0.0516-0.02192 0.0962-0.02292 0.25305-0.0058 0.13711 0.01511 0.19394 0.01536 0.20308 4.03e-4 7e-3 -0.01108 0.0276-0.08383 0.0459-0.16119 0.0181-0.07736 0.0516-0.16693 0.0742-0.19902 0.0262-0.03736 0.17918-0.14136 0.42446-0.28865l0.38344-0.23026 6e-3 -0.2644c0.01-0.39333 0.0797-0.66886 0.25991-1.0152 0.2061-0.39612 0.56621-0.75053 0.96901-0.95363 0.25523-0.12869 0.62435-0.22923 0.85671-0.23331 0.0586-1e-3 0.12517-0.0073 0.14794-0.01411 0.0229-0.0068 0.0861-0.07595 0.14061-0.15376 0.30427-0.43403 0.79011-0.73465 1.3289-0.82228 0.85306-0.13874 1.7111 0.30394 2.106 1.0865 0.23593 0.46759 0.27475 1.046 0.10389 1.5482-0.1223 0.35962-0.39922 0.74353-0.68542 0.9503-0.0558 0.04033-0.0773 0.06756-0.0691 0.08784 0.10734 0.26649 0.15298 0.80882 0.0947 1.1248-0.1735 0.94148-0.86033 1.6439-1.7945 1.8351-0.16685 0.03418-0.52525 0.0436-0.74026 0.0194l-0.13474-0.01511-1.0717 1.4371c-0.74843 1.0036-1.0895 1.4464-1.1307 1.468-0.0434 0.02267-0.18141 0.03985-0.52166 0.06454-0.56854 0.04126-0.56206 0.04121-0.63803 0.0038zm0.6758-0.32918c0.18179-0.01184 0.33153-0.02267 0.33278-0.02418 1e-3 -0.0015 0.48024-0.64429 1.0644-1.4286 0.58416-0.78427 1.0846-1.4502 1.112-1.4798 0.0546-0.05894 0.0833-0.05998 0.38043-0.0136 0.44174 0.06925 0.9432-0.05176 1.3504-0.32581 0.14781-0.0995 0.37837-0.33111 0.48066-0.48288 0.1128-0.16731 0.2359-0.43501 0.28776-0.62558 0.0383-0.14058 0.0435-0.20162 0.0423-0.49105-1e-3 -0.27181-8e-3 -0.354-0.0394-0.46272-0.0209-0.0727-0.0459-0.13031-0.0552-0.12796-0.01 0.0023-0.0914 0.0303-0.18202 0.06217-0.0907 0.03187-0.25394 0.07207-0.36288 0.08935-0.19134 0.03035-0.19885 0.03335-0.22167 0.08892-0.0359 0.08779-0.18315 0.23505-0.28903 0.28927-0.13821 0.07076-0.35553 0.08028-0.50935 0.02242-0.1368-0.05156-0.27857-0.1787-0.34615-0.31032-0.038-0.07403-0.0505-0.13081-0.0571-0.25902-8e-3 -0.15237-4e-3 -0.17308 0.0487-0.2863 0.14968-0.31982 0.49416-0.46 0.82233-0.33462 0.16328 0.06237 0.32268 0.23837 0.37308 0.41189l0.0232 0.08003 0.0774-0.01108c0.18411-0.02645 0.5023-0.1262 0.5023-0.15726 0-0.0086-0.0414-0.07781-0.0921-0.15446-0.42075-0.63643-1.1867-0.96912-1.931-0.83876-1.284 0.22487-1.9846 1.6101-1.4037 2.7753 0.0461 0.09257 0.0838 0.18782 0.0838 0.21164 0 0.02645-0.11597 0.19842-0.29872 0.44287l-0.29873 0.39955 0.0264 0.18041c0.0144 0.09922 0.0209 0.2089 0.0144 0.24371-0.0202 0.10743-0.11514 0.1821-0.29529 0.23235-0.22719 0.0633-0.22273 0.05993-0.20422 0.15557 8e-3 0.04449 0.0161 0.12912 0.0164 0.18804 7.1e-4 0.08874-8e-3 0.11726-0.0486 0.16592-0.0627 0.07446-0.11252 0.0997-0.29993 0.15177-0.0832 0.02318-0.15381 0.04446-0.15714 0.04751-3e-3 3e-3 4e-3 0.07371 0.0161 0.15698 0.0384 0.2627-0.0189 0.34498-0.29827 0.42786-0.28109 0.0834-0.2946 0.09008-0.3305 0.16308-0.0329 0.06688-0.0324 0.07083 0.0523 0.44348 0.0469 0.20681 0.0896 0.3874 0.0947 0.40136 7e-3 0.01864 0.0332 0.02242 0.0988 0.01436 0.0493-0.0058 0.23837-0.02065 0.42015-0.03217zm-0.0202-0.39342c-0.0637-0.06368-0.0695-0.1197-0.0204-0.19975 0.067-0.1094 2.0464-2.7579 2.0925-2.7999 0.0455-0.04144 0.12378-0.05438 0.18537-0.03076 0.0449 0.01738 0.0907 0.11731 0.0775 0.1696-0.0138 0.05224-2.0441 2.7865-2.1275 2.8641-0.0723 0.06738-0.13809 0.06635-0.20771-0.0033zm-0.55689-3.1472 1.4972-0.89824-0.0154-0.07915c-0.031-0.16048-0.0191-0.59113 0.0217-0.79261 0.14325-0.7031 0.60951-1.291 1.2689-1.6 0.55299-0.25914 1.2614-0.27063 1.8159-0.02945l0.0734 0.03194-0.0527-0.09103c-0.14408-0.24847-0.30627-0.43196-0.52685-0.59592-0.76467-0.56841-1.7991-0.50279-2.495 0.15829-0.41063 0.39006-0.62103 0.93953-0.58641 1.5315 0.0123 0.21492 0.0108 0.22295-0.0306 0.26484-0.0242 0.02393-0.22363 0.14922-0.44366 0.27883l-0.40003 0.23568-0.0405 0.16053c-0.0534 0.21172-0.0852 0.27451-0.16381 0.32312-0.0609 0.03763-0.0807 0.0395-0.28885 0.02703l-0.22346-0.01335-0.0314 0.13837c-0.0601 0.2644-0.13681 0.31384-0.44682 0.288l-0.20648-0.01738-0.0171 0.0661c-0.01 0.03635-0.0264 0.10232-0.038 0.14663-0.0282 0.10859-0.11786 0.20774-0.20222 0.22356-0.0367 0.0068-0.16744 0.0025-0.29056-0.01008-0.24071-0.02418-0.27751-0.01738-0.32808 0.06063-0.0249 0.03864-0.16955 0.80521-0.15459 0.82019 8e-3 0.0083 0.77039 0.26634 0.79237 0.26837 8e-3 8.04e-4 0.68946-0.40275 1.5129-0.89678zm-1.6617 0.47415c-0.0534-0.05335-0.0604-0.13293-0.0174-0.19446 0.0159-0.02292 0.61733-0.39441 1.3363-0.82577 1.4212-0.85262 1.4003-0.84231 1.4851-0.73453 0.0462 0.05877 0.0504 0.13356 0.0108 0.19046-0.0159 0.02242-0.61888 0.39409-1.3403 0.82577-0.96946 0.58011-1.3268 0.78488-1.3698 0.78488-0.0367 0-0.0753-0.01738-0.10456-0.04635zm5.995-2.1527c0.11129-0.05753 0.1061-0.07801-0.0262-0.10234-0.0672-0.01234-0.19035-0.0466-0.27351-0.07602-0.16504-0.05839-0.18003-0.05066-0.10826 0.05587 0.0931 0.13796 0.27333 0.19215 0.40793 0.12252zm0.15351-0.41856c0-0.0368-0.0926-0.13053-0.15867-0.16051-0.0977-0.04441-0.17054-0.04438-0.26629 1.13e-4l-0.0755 0.03512 0.0755 0.03302c0.16812 0.07353 0.42495 0.12927 0.42495 0.09227zm1.3162-0.38787c0.37166-0.31924 0.5764-0.77528 0.57494-1.2806-3e-3 -0.76898-0.50969-1.4231-1.2641-1.6294-0.2093-0.05726-0.62961-0.05683-0.84421 8.34e-4 -0.20809 0.05592-0.47271 0.19043-0.64102 0.32581-0.14277 0.11484-0.31822 0.31428-0.30101 0.34213 6e-3 0.0086 0.0301 0.01537 0.0553 0.01537 0.0814 0 0.40977 0.11482 0.58299 0.20384 0.30957 0.15905 0.63275 0.44109 0.81771 0.71363 0.0994 0.14638 0.22089 0.38965 0.2751 0.55068 0.0392 0.11668 0.0619 0.14736 0.24099 0.32818 0.12353 0.12469 0.23306 0.25697 0.29206 0.35281 0.0519 0.08431 0.1003 0.15371 0.10743 0.15416 7e-3 4.71e-4 0.0539-0.03426 0.10388-0.07721z" fill="#424242" stroke="#424242" stroke-width=".219"/>
 </g>
</svg>
